<svg version="1.1" id="Layer_1" xmlns="http://www.w3.org/2000/svg" xmlns:xlink="http://www.w3.org/1999/xlink" x="0px" y="0px"
	 width="100%" viewBox="0 0 500 500" enable-background="new 0 0 500 500" xml:space="preserve">
<path fill="#000000" opacity="1.000000" stroke="none" 
	d="
M461.000000,501.000000 
	C307.333374,501.000000 154.166733,501.000000 1.000082,501.000000 
	C1.000055,334.333405 1.000055,167.666824 1.000027,1.000172 
	C167.666550,1.000114 334.333099,1.000114 500.999756,1.000057 
	C500.999817,167.666519 500.999817,334.333038 500.999908,500.999756 
	C487.833344,501.000000 474.666656,501.000000 461.000000,501.000000 
M210.479797,279.530853 
	C226.295593,281.883636 236.974258,277.033020 244.639603,264.014313 
	C247.567749,259.041168 247.272507,258.321106 241.806641,256.261261 
	C239.670273,255.456161 236.490723,255.799454 236.963837,251.190887 
	C237.007004,249.198868 237.112289,247.205917 237.082794,245.214966 
	C236.941757,235.694504 235.568756,234.539932 226.485077,237.677124 
	C221.808197,239.292343 218.223907,240.256409 216.912430,233.900574 
	C216.673950,232.744812 215.357040,231.794449 214.493423,230.787460 
	C207.069901,222.131531 203.965088,221.509674 198.026245,230.908813 
	C193.288284,238.407333 188.744370,239.905930 181.226273,236.502991 
	C178.101883,235.088806 175.998474,236.763626 175.920242,240.190094 
	C175.814865,244.805771 175.985977,249.427780 175.797318,254.283188 
	C175.797318,254.283188 175.877274,254.611938 175.145493,254.845123 
	C172.111298,256.002716 169.077118,257.160339 166.107758,258.293182 
	C170.902069,275.764191 188.654922,284.780243 205.499557,278.596466 
	C206.357910,278.650513 207.216248,278.704559 208.637039,279.022247 
	C209.044724,279.025604 209.452408,279.028961 210.479797,279.530853 
M370.957062,273.601959 
	C381.626953,279.657318 392.102234,278.972382 402.983612,272.797882 
	C401.420227,269.962433 400.033203,267.446869 398.691803,265.013977 
	C385.591705,269.016754 378.197449,267.458954 373.857880,259.594238 
	C375.845215,259.505737 377.602264,259.368927 379.359985,259.359375 
	C387.185181,259.316864 395.016113,259.455017 402.830750,259.156677 
	C404.216125,259.103821 406.496368,257.476624 406.734924,256.257721 
	C409.192871,243.697693 398.250061,229.769760 385.660614,229.077896 
	C374.124298,228.443878 364.483917,234.701645 360.830109,245.195892 
	C357.139984,255.794662 360.608337,265.954773 370.957062,273.601959 
M157.046722,237.623840 
	C152.308701,230.536453 142.086044,227.614365 130.556290,233.190643 
	C127.389336,227.782394 122.363762,231.067535 118.062881,230.076736 
	C118.062881,245.887497 118.062881,261.243500 118.062881,276.613647 
	C122.280434,276.613647 126.076668,276.613647 130.407806,276.613647 
	C130.407806,274.825043 130.406570,273.200012 130.408005,271.574951 
	C130.414307,264.413757 130.397034,257.252441 130.437286,250.091415 
	C130.461624,245.763275 132.316544,242.817429 136.774734,241.788712 
	C142.761887,240.407181 147.037506,243.575272 147.108017,249.768585 
	C147.209412,258.676239 147.133896,267.585907 147.133896,276.488342 
	C151.860550,276.488342 155.778534,276.488342 159.926025,276.488342 
	C159.926025,266.228119 160.101120,256.256866 159.810379,246.299240 
	C159.731720,243.605865 158.242767,240.953690 157.046722,237.623840 
M280.699432,233.975174 
	C276.936279,243.794647 273.173096,253.614105 268.917328,264.718903 
	C265.490204,255.760880 262.607819,248.106537 259.635956,240.487106 
	C255.224365,229.176605 255.197418,229.187119 242.195328,230.510681 
	C246.868088,242.279388 251.451706,253.967957 256.148285,265.610962 
	C260.689545,276.868958 260.743530,276.676697 272.922791,276.879364 
	C276.453003,276.938110 277.853546,275.605988 278.990936,272.582184 
	C282.023621,264.519623 285.361633,256.572235 288.550659,248.568054 
	C290.926605,242.604706 293.259369,236.624146 295.815308,230.133377 
	C291.675903,230.133377 288.166565,229.845825 284.746979,230.274261 
	C283.370422,230.446747 282.190552,232.188736 280.699432,233.975174 
M341.977661,250.486633 
	C341.977661,247.554199 341.977661,244.621765 341.977661,241.390717 
	C346.329895,241.390717 350.094971,241.390717 353.943665,241.390717 
	C353.943665,237.502838 353.943665,233.932480 353.943665,230.035400 
	C349.879089,230.035400 346.107788,230.035400 341.883240,230.035400 
	C341.883240,226.503021 341.883240,223.274200 341.883240,220.071655 
	C337.343048,220.071655 333.275543,220.071655 328.999023,220.071655 
	C328.874359,225.736374 330.921234,232.329041 322.621063,232.942566 
	C322.621063,236.052185 322.621063,238.636185 322.621063,241.383911 
	C324.872589,241.560669 326.786499,241.710922 328.979034,241.883041 
	C328.979034,248.117676 328.818390,254.092224 329.040741,260.052490 
	C329.169098,263.493011 329.397705,267.086578 330.490936,270.301971 
	C332.831360,277.185455 340.824768,279.996277 350.522339,277.766022 
	C357.284210,276.210938 353.119415,270.796295 354.130798,267.210175 
	C354.185272,267.017151 353.817993,266.705139 353.652588,266.456879 
	C344.315338,267.877686 341.989410,265.882477 341.974701,256.460480 
	C341.972107,254.797501 341.976135,253.134537 341.977661,250.486633 
M94.991364,275.134460 
	C99.044319,275.908539 103.097275,276.682587 107.412735,277.506775 
	C107.412735,260.950562 107.412735,245.630188 107.412735,230.482147 
	C103.072807,230.482147 99.160347,230.482147 94.976028,230.482147 
	C94.976028,245.292175 94.976028,259.742310 94.991364,275.134460 
M302.170685,243.513947 
	C302.170685,254.439941 302.170685,265.365936 302.170685,276.453247 
	C306.761383,276.453247 310.803650,276.453247 314.774017,276.453247 
	C314.774017,260.899231 314.774017,245.680420 314.774017,230.411804 
	C310.519989,230.411804 306.610291,230.411804 302.172333,230.411804 
	C302.172333,234.625839 302.172333,238.573166 302.170685,243.513947 
M97.897797,210.274826 
	C94.104233,213.043793 92.996521,216.544617 95.696411,220.542816 
	C97.788170,223.640488 100.908539,224.591064 104.389275,222.858612 
	C108.123299,221.000092 108.893784,217.716248 107.831154,214.009430 
	C106.760452,210.274506 103.276772,208.864639 97.897797,210.274826 
M313.837372,221.303909 
	C316.468964,217.926178 316.653564,214.102707 313.427002,211.578461 
	C311.536377,210.099335 307.854004,209.712479 305.425842,210.405243 
	C301.968689,211.391617 301.366058,214.909500 301.977203,218.270264 
	C302.879364,223.230988 307.813354,224.747162 313.837372,221.303909 
z"/>
<path fill="#F8F8F8" opacity="1.000000" stroke="none" 
	d="
M370.667023,273.382080 
	C360.608337,265.954773 357.139984,255.794662 360.830109,245.195892 
	C364.483917,234.701645 374.124298,228.443878 385.660614,229.077896 
	C398.250061,229.769760 409.192871,243.697693 406.734924,256.257721 
	C406.496368,257.476624 404.216125,259.103821 402.830750,259.156677 
	C395.016113,259.455017 387.185181,259.316864 379.359985,259.359375 
	C377.602264,259.368927 375.845215,259.505737 373.857880,259.594238 
	C378.197449,267.458954 385.591705,269.016754 398.691803,265.013977 
	C400.033203,267.446869 401.420227,269.962433 402.983612,272.797882 
	C392.102234,278.972382 381.626953,279.657318 370.667023,273.382080 
M373.306488,247.255020 
	C373.507599,248.042038 373.696259,249.512863 373.911652,249.516785 
	C380.575195,249.638168 387.241364,249.616058 394.197571,249.616058 
	C391.866821,243.460815 388.989929,240.651978 384.614471,240.290527 
	C379.632507,239.878937 376.084290,242.290207 373.306488,247.255020 
z"/>
<path fill="#F8F8F8" opacity="1.000000" stroke="none" 
	d="
M157.223938,237.953217 
	C158.242767,240.953690 159.731720,243.605865 159.810379,246.299240 
	C160.101120,256.256866 159.926025,266.228119 159.926025,276.488342 
	C155.778534,276.488342 151.860550,276.488342 147.133896,276.488342 
	C147.133896,267.585907 147.209412,258.676239 147.108017,249.768585 
	C147.037506,243.575272 142.761887,240.407181 136.774734,241.788712 
	C132.316544,242.817429 130.461624,245.763275 130.437286,250.091415 
	C130.397034,257.252441 130.414307,264.413757 130.408005,271.574951 
	C130.406570,273.200012 130.407806,274.825043 130.407806,276.613647 
	C126.076668,276.613647 122.280434,276.613647 118.062881,276.613647 
	C118.062881,261.243500 118.062881,245.887497 118.062881,230.076736 
	C122.363762,231.067535 127.389336,227.782394 130.557434,233.185303 
	C142.086044,227.614365 152.308701,230.536453 157.223938,237.953217 
z"/>
<path fill="#F6F6F6" opacity="1.000000" stroke="none" 
	d="
M280.810303,233.595795 
	C282.190552,232.188736 283.370422,230.446747 284.746979,230.274261 
	C288.166565,229.845825 291.675903,230.133377 295.815308,230.133377 
	C293.259369,236.624146 290.926605,242.604706 288.550659,248.568054 
	C285.361633,256.572235 282.023621,264.519623 278.990936,272.582184 
	C277.853546,275.605988 276.453003,276.938110 272.922791,276.879364 
	C260.743530,276.676697 260.689545,276.868958 256.148285,265.610962 
	C251.451706,253.967957 246.868088,242.279388 242.195328,230.510681 
	C255.197418,229.187119 255.224365,229.176605 259.635956,240.487106 
	C262.607819,248.106537 265.490204,255.760880 268.917328,264.718903 
	C273.173096,253.614105 276.936279,243.794647 280.810303,233.595795 
z"/>
<path fill="#F8F8F8" opacity="1.000000" stroke="none" 
	d="
M341.977356,250.979095 
	C341.976135,253.134537 341.972107,254.797501 341.974701,256.460480 
	C341.989410,265.882477 344.315338,267.877686 353.652588,266.456879 
	C353.817993,266.705139 354.185272,267.017151 354.130798,267.210175 
	C353.119415,270.796295 357.284210,276.210938 350.522339,277.766022 
	C340.824768,279.996277 332.831360,277.185455 330.490936,270.301971 
	C329.397705,267.086578 329.169098,263.493011 329.040741,260.052490 
	C328.818390,254.092224 328.979034,248.117676 328.979034,241.883041 
	C326.786499,241.710922 324.872589,241.560669 322.621063,241.383911 
	C322.621063,238.636185 322.621063,236.052185 322.621063,232.942566 
	C330.921234,232.329041 328.874359,225.736374 328.999023,220.071655 
	C333.275543,220.071655 337.343048,220.071655 341.883240,220.071655 
	C341.883240,223.274200 341.883240,226.503021 341.883240,230.035400 
	C346.107788,230.035400 349.879089,230.035400 353.943665,230.035400 
	C353.943665,233.932480 353.943665,237.502838 353.943665,241.390717 
	C350.094971,241.390717 346.329895,241.390717 341.977661,241.390717 
	C341.977661,244.621765 341.977661,247.554199 341.977356,250.979095 
z"/>
<path fill="#6ABBDD" opacity="1.000000" stroke="none" 
	d="
M176.038422,254.047058 
	C175.985977,249.427780 175.814865,244.805771 175.920242,240.190094 
	C175.998474,236.763626 178.101883,235.088806 181.226273,236.502991 
	C188.744370,239.905930 193.288284,238.407333 198.026245,230.908813 
	C203.965088,221.509674 207.069901,222.131531 214.493423,230.787460 
	C215.357040,231.794449 216.673950,232.744812 216.912430,233.900574 
	C218.223907,240.256409 221.808197,239.292343 226.485077,237.677124 
	C235.568756,234.539932 236.941757,235.694504 237.082794,245.214966 
	C237.112289,247.205917 237.007004,249.198868 236.628967,251.782471 
	C236.156631,252.830353 236.019165,253.286667 235.435135,253.828400 
	C230.997009,253.906815 227.005463,253.899796 223.017258,253.453979 
	C223.021530,252.351456 223.166351,251.648926 222.999664,251.030319 
	C222.021896,247.401566 220.971359,243.792389 219.945343,240.176620 
	C216.769119,242.845215 213.587585,245.507568 210.427551,248.195221 
	C210.194412,248.393509 210.100281,248.767120 209.968536,249.070938 
	C208.774841,251.823471 207.587189,254.578629 206.752625,256.511230 
	C203.304962,251.656189 200.014175,246.627045 196.298157,241.934631 
	C194.004852,239.038788 191.378235,238.881546 190.463165,243.193817 
	C189.715912,246.715271 189.463593,250.341751 188.530319,253.949570 
	C184.058670,254.000671 180.048538,254.023865 176.038422,254.047058 
z"/>
<path fill="#F6F6F6" opacity="1.000000" stroke="none" 
	d="
M94.983696,274.663452 
	C94.976028,259.742310 94.976028,245.292175 94.976028,230.482147 
	C99.160347,230.482147 103.072807,230.482147 107.412735,230.482147 
	C107.412735,245.630188 107.412735,260.950562 107.412735,277.506775 
	C103.097275,276.682587 99.044319,275.908539 94.983696,274.663452 
z"/>
<path fill="#F6F6F6" opacity="1.000000" stroke="none" 
	d="
M302.171509,243.017227 
	C302.172333,238.573166 302.172333,234.625839 302.172333,230.411804 
	C306.610291,230.411804 310.519989,230.411804 314.774017,230.411804 
	C314.774017,245.680420 314.774017,260.899231 314.774017,276.453247 
	C310.803650,276.453247 306.761383,276.453247 302.170685,276.453247 
	C302.170685,265.365936 302.170685,254.439941 302.171509,243.017227 
z"/>
<path fill="#296BB7" opacity="1.000000" stroke="none" 
	d="
M208.074600,278.758606 
	C207.216248,278.704559 206.357910,278.650513 204.871078,278.435913 
	C203.812698,278.190735 203.382812,278.106049 202.817383,277.714905 
	C194.953949,271.840820 190.165466,264.484406 189.388031,254.932068 
	C200.508652,256.802521 203.901062,265.122406 206.310043,275.599670 
	C208.857178,261.882568 213.125900,256.897369 223.004028,255.307251 
	C221.812683,265.847931 215.692230,272.788391 208.074600,278.758606 
z"/>
<path fill="#5D9FD5" opacity="1.000000" stroke="none" 
	d="
M202.952911,278.021393 
	C203.382812,278.106049 203.812698,278.190735 204.452301,278.335449 
	C188.654922,284.780243 170.902069,275.764191 166.107758,258.293182 
	C169.077118,257.160339 172.111298,256.002716 175.566284,255.116180 
	C177.233307,258.071320 178.073532,261.056488 179.799896,263.384521 
	C185.588669,271.190826 192.142761,278.047333 202.952911,278.021393 
z"/>
<path fill="#5D9FD5" opacity="1.000000" stroke="none" 
	d="
M235.881714,253.742981 
	C236.019165,253.286667 236.156631,252.830353 236.486511,252.231125 
	C236.490723,255.799454 239.670273,255.456161 241.806641,256.261261 
	C247.272507,258.321106 247.567749,259.041168 244.639603,264.014313 
	C236.974258,277.033020 226.295593,281.883636 210.561981,279.253296 
	C215.145020,276.955170 220.154724,275.622986 224.030960,272.757477 
	C230.295609,268.126373 236.006256,262.603973 235.881714,253.742981 
z"/>
<path fill="#3A8ACF" opacity="1.000000" stroke="none" 
	d="
M235.435150,253.828400 
	C236.006256,262.603973 230.295609,268.126373 224.030960,272.757477 
	C220.154724,275.622986 215.145020,276.955170 210.252121,279.004028 
	C209.452408,279.028961 209.044724,279.025604 208.355820,278.890442 
	C215.692230,272.788391 221.812683,265.847931 223.002411,255.056168 
	C223.002487,254.228745 223.008194,254.060760 223.013901,253.892761 
	C227.005463,253.899796 230.997009,253.906815 235.435150,253.828400 
z"/>
<path fill="#3A8ACF" opacity="1.000000" stroke="none" 
	d="
M202.817383,277.714905 
	C192.142761,278.047333 185.588669,271.190826 179.799896,263.384521 
	C178.073532,261.056488 177.233307,258.071320 175.932159,254.999603 
	C175.877274,254.611938 175.797318,254.283188 175.917862,254.165131 
	C180.048538,254.023865 184.058670,254.000671 188.537750,254.200470 
	C189.004044,254.590286 189.001419,254.757111 188.998779,254.923920 
	C190.165466,264.484406 194.953949,271.840820 202.817383,277.714905 
z"/>
<path fill="#F6F6F6" opacity="1.000000" stroke="none" 
	d="
M98.243965,210.125351 
	C103.276772,208.864639 106.760452,210.274506 107.831154,214.009430 
	C108.893784,217.716248 108.123299,221.000092 104.389275,222.858612 
	C100.908539,224.591064 97.788170,223.640488 95.696411,220.542816 
	C92.996521,216.544617 94.104233,213.043793 98.243965,210.125351 
z"/>
<path fill="#F6F6F6" opacity="1.000000" stroke="none" 
	d="
M313.575195,221.570618 
	C307.813354,224.747162 302.879364,223.230988 301.977203,218.270264 
	C301.366058,214.909500 301.968689,211.391617 305.425842,210.405243 
	C307.854004,209.712479 311.536377,210.099335 313.427002,211.578461 
	C316.653564,214.102707 316.468964,217.926178 313.575195,221.570618 
z"/>
<path fill="#181818" opacity="1.000000" stroke="none" 
	d="
M373.512878,246.919006 
	C376.084290,242.290207 379.632507,239.878937 384.614471,240.290527 
	C388.989929,240.651978 391.866821,243.460815 394.197571,249.616058 
	C387.241364,249.616058 380.575195,249.638168 373.911652,249.516785 
	C373.696259,249.512863 373.507599,248.042038 373.512878,246.919006 
z"/>
<path fill="#4BA4D4" opacity="1.000000" stroke="none" 
	d="
M189.388031,254.932068 
	C189.001419,254.757111 189.004044,254.590286 188.999268,254.172546 
	C189.463593,250.341751 189.715912,246.715271 190.463165,243.193817 
	C191.378235,238.881546 194.004852,239.038788 196.298157,241.934631 
	C200.014175,246.627045 203.304962,251.656189 206.752625,256.511230 
	C207.587189,254.578629 208.774841,251.823471 209.968536,249.070938 
	C210.100281,248.767120 210.194412,248.393509 210.427551,248.195221 
	C213.587585,245.507568 216.769119,242.845215 219.945343,240.176620 
	C220.971359,243.792389 222.021896,247.401566 222.999664,251.030319 
	C223.166351,251.648926 223.021530,252.351456 223.017258,253.453979 
	C223.008194,254.060760 223.002487,254.228745 222.998413,254.647797 
	C213.125900,256.897369 208.857178,261.882568 206.310043,275.599670 
	C203.901062,265.122406 200.508652,256.802521 189.388031,254.932068 
z"/>
</svg>